# Wavefront OBJ file automatically generated by Tiled2Unity

# Vertices (Count = 112)
v 0 -16 0
v -16 -16 0
v -16 0 0
v 0 0 0
v -32 -16 0
v -32 0 0
v -48 -16 0
v -48 0 0
v -64 -16 0
v -64 0 0
v -80 -16 0
v -80 0 0
v -96 -16 0
v -96 0 0
v -112 -16 0
v -112 0 0
v -128 -16 0
v -128 0 0
v -144 -16 0
v -144 0 0
v -160 -16 0
v -160 0 0
v 0 -32 0
v -16 -32 0
v -144 -32 0
v -160 -32 0
v 0 -48 0
v -16 -48 0
v -144 -48 0
v -160 -48 0
v 0 -64 0
v -16 -64 0
v -144 -64 0
v -160 -64 0
v 0 -80 0
v -16 -80 0
v -144 -80 0
v -160 -80 0
v 0 -96 0
v -16 -96 0
v -144 -96 0
v -160 -96 0
v 0 -112 0
v -16 -112 0
v -144 -112 0
v -160 -112 0
v 0 -128 0
v -16 -128 0
v -144 -128 0
v -160 -128 0
v 0 -144 0
v -16 -144 0
v -144 -144 0
v -160 -144 0
v -32 -32 0
v -48 -32 0
v -64 -32 0
v -80 -32 0
v -96 -32 0
v -112 -32 0
v -128 -32 0
v -32 -48 0
v -48 -48 0
v -64 -48 0
v -80 -48 0
v -96 -48 0
v -112 -48 0
v -128 -48 0
v -32 -64 0
v -48 -64 0
v -64 -64 0
v -80 -64 0
v -96 -64 0
v -112 -64 0
v -128 -64 0
v -32 -80 0
v -48 -80 0
v -64 -80 0
v -80 -80 0
v -96 -80 0
v -112 -80 0
v -128 -80 0
v -32 -96 0
v -48 -96 0
v -64 -96 0
v -80 -96 0
v -96 -96 0
v -112 -96 0
v -128 -96 0
v -32 -112 0
v -48 -112 0
v -64 -112 0
v -80 -112 0
v -96 -112 0
v -112 -112 0
v -128 -112 0
v -32 -128 0
v -48 -128 0
v -64 -128 0
v -80 -128 0
v -96 -128 0
v -112 -128 0
v -128 -128 0
v -32 -144 0
v -48 -144 0
v -64 -144 0
v -80 -144 0
v -96 -144 0
v -112 -144 0
v -128 -144 0
v -96 -160 0
v -112 -160 0

# Texture cooridinates (Count = 40)
vt 0.0001220703 0.0001220703
vt 0.9998779 0.0001220703
vt 0.9998779 0.9998779
vt 0.0001220703 0.9998779
vt 0.1229359 0.9049467
vt 0.1394608 0.9049467
vt 0.1394608 0.9353575
vt 0.1229359 0.9353575
vt 0.5444235 0.8726273
vt 0.5609484 0.8726273
vt 0.5609484 0.9030381
vt 0.5444235 0.9030381
vt 0.4917375 0.9049467
vt 0.5082625 0.9049467
vt 0.5082625 0.9353575
vt 0.4917375 0.9353575
vt 0.5092995 0.9049467
vt 0.5258244 0.9049467
vt 0.5258244 0.9353575
vt 0.5092995 0.9353575
vt 0.3688037 0.8403079
vt 0.3853286 0.8403079
vt 0.3853286 0.8707187
vt 0.3688037 0.8707187
vt 0.4566136 0.8403079
vt 0.4731385 0.8403079
vt 0.4731385 0.8707187
vt 0.4566136 0.8707187
vt 0.4741756 0.7756691
vt 0.4907005 0.7756691
vt 0.4907005 0.8060799
vt 0.4741756 0.8060799
vt 0.3863657 0.8403079
vt 0.4028905 0.8403079
vt 0.4028905 0.8707187
vt 0.3863657 0.8707187
vt 0.1229359 0.9695855
vt 0.1394608 0.9695855
vt 0.1394608 0.9999963
vt 0.1229359 0.9999963

# Normal
vn 0 0 -1

# Groups (Count = 3)

g mesh_0001
f 1/1/1 2/2/1 3/3/1 4/4/1
f 2/1/1 5/2/1 6/3/1 3/4/1
f 5/1/1 7/2/1 8/3/1 6/4/1
f 7/1/1 9/2/1 10/3/1 8/4/1
f 9/1/1 11/2/1 12/3/1 10/4/1
f 11/1/1 13/2/1 14/3/1 12/4/1
f 13/1/1 15/2/1 16/3/1 14/4/1
f 15/1/1 17/2/1 18/3/1 16/4/1
f 17/1/1 19/2/1 20/3/1 18/4/1
f 19/1/1 21/2/1 22/3/1 20/4/1
f 23/1/1 24/2/1 2/3/1 1/4/1
f 25/1/1 26/2/1 21/3/1 19/4/1
f 27/1/1 28/2/1 24/3/1 23/4/1
f 29/1/1 30/2/1 26/3/1 25/4/1
f 31/1/1 32/2/1 28/3/1 27/4/1
f 33/1/1 34/2/1 30/3/1 29/4/1
f 35/1/1 36/2/1 32/3/1 31/4/1
f 37/1/1 38/2/1 34/3/1 33/4/1
f 39/1/1 40/2/1 36/3/1 35/4/1
f 41/1/1 42/2/1 38/3/1 37/4/1
f 43/1/1 44/2/1 40/3/1 39/4/1
f 45/1/1 46/2/1 42/3/1 41/4/1
f 47/1/1 48/2/1 44/3/1 43/4/1
f 49/1/1 50/2/1 46/3/1 45/4/1
f 51/1/1 52/2/1 48/3/1 47/4/1
f 53/1/1 54/2/1 50/3/1 49/4/1

g mesh_0002
f 24/5/1 55/6/1 5/7/1 2/8/1
f 55/5/1 56/6/1 7/7/1 5/8/1
f 56/9/1 57/10/1 9/11/1 7/12/1
f 57/5/1 58/6/1 11/7/1 9/8/1
f 58/5/1 59/6/1 13/7/1 11/8/1
f 59/5/1 60/6/1 15/7/1 13/8/1
f 60/5/1 61/6/1 17/7/1 15/8/1
f 61/5/1 25/6/1 19/7/1 17/8/1
f 28/5/1 62/6/1 55/7/1 24/8/1
f 62/13/1 63/14/1 56/15/1 55/16/1
f 63/17/1 64/18/1 57/19/1 56/20/1
f 64/5/1 65/6/1 58/7/1 57/8/1
f 65/5/1 66/6/1 59/7/1 58/8/1
f 66/5/1 67/6/1 60/7/1 59/8/1
f 67/5/1 68/6/1 61/7/1 60/8/1
f 68/5/1 29/6/1 25/7/1 61/8/1
f 32/5/1 69/6/1 62/7/1 28/8/1
f 69/5/1 70/6/1 63/7/1 62/8/1
f 70/5/1 71/6/1 64/7/1 63/8/1
f 71/5/1 72/6/1 65/7/1 64/8/1
f 72/5/1 73/6/1 66/7/1 65/8/1
f 73/5/1 74/6/1 67/7/1 66/8/1
f 74/5/1 75/6/1 68/7/1 67/8/1
f 75/5/1 33/6/1 29/7/1 68/8/1
f 36/5/1 76/6/1 69/7/1 32/8/1
f 76/5/1 77/6/1 70/7/1 69/8/1
f 77/5/1 78/6/1 71/7/1 70/8/1
f 78/5/1 79/6/1 72/7/1 71/8/1
f 79/5/1 80/6/1 73/7/1 72/8/1
f 80/5/1 81/6/1 74/7/1 73/8/1
f 81/5/1 82/6/1 75/7/1 74/8/1
f 82/5/1 37/6/1 33/7/1 75/8/1
f 40/5/1 83/6/1 76/7/1 36/8/1
f 83/21/1 84/22/1 77/23/1 76/24/1
f 84/25/1 85/26/1 78/27/1 77/28/1
f 85/29/1 86/30/1 79/31/1 78/32/1
f 86/33/1 87/34/1 80/35/1 79/36/1
f 87/5/1 88/6/1 81/7/1 80/8/1
f 88/5/1 89/6/1 82/7/1 81/8/1
f 89/5/1 41/6/1 37/7/1 82/8/1
f 44/5/1 90/6/1 83/7/1 40/8/1
f 90/5/1 91/6/1 84/7/1 83/8/1
f 91/5/1 92/6/1 85/7/1 84/8/1
f 92/5/1 93/6/1 86/7/1 85/8/1
f 93/5/1 94/6/1 87/7/1 86/8/1
f 94/5/1 95/6/1 88/7/1 87/8/1
f 95/5/1 96/6/1 89/7/1 88/8/1
f 96/5/1 45/6/1 41/7/1 89/8/1
f 48/5/1 97/6/1 90/7/1 44/8/1
f 97/5/1 98/6/1 91/7/1 90/8/1
f 98/5/1 99/6/1 92/7/1 91/8/1
f 99/5/1 100/6/1 93/7/1 92/8/1
f 100/5/1 101/6/1 94/7/1 93/8/1
f 101/5/1 102/6/1 95/7/1 94/8/1
f 102/5/1 103/6/1 96/7/1 95/8/1
f 103/5/1 49/6/1 45/7/1 96/8/1
f 52/5/1 104/6/1 97/7/1 48/8/1
f 104/5/1 105/6/1 98/7/1 97/8/1
f 105/5/1 106/6/1 99/7/1 98/8/1
f 106/5/1 107/6/1 100/7/1 99/8/1
f 107/5/1 108/6/1 101/7/1 100/8/1
f 108/5/1 109/6/1 102/7/1 101/8/1
f 109/5/1 110/6/1 103/7/1 102/8/1
f 110/5/1 53/6/1 49/7/1 103/8/1
f 111/37/1 112/38/1 109/39/1 108/40/1

g mesh_0003
f 56/1/1 57/2/1 9/3/1 7/4/1
f 62/1/1 63/2/1 56/3/1 55/4/1
f 63/1/1 64/2/1 57/3/1 56/4/1
f 83/1/1 84/2/1 77/3/1 76/4/1
f 84/1/1 85/2/1 78/3/1 77/4/1
f 85/1/1 86/2/1 79/3/1 78/4/1
f 86/1/1 87/2/1 80/3/1 79/4/1

